<?xml version="1.0" encoding="UTF-8"?>
<svg xmlns="http://www.w3.org/2000/svg" xmlns:xlink="http://www.w3.org/1999/xlink" width="120px" height="120px" viewBox="0 0 120 120" version="1.1">
<defs>
<clipPath id="clip1">
  <path d="M 0 46.433594 L 21.441406 46.433594 L 21.441406 69.441406 L 0 69.441406 Z M 0 46.433594 "/>
</clipPath>
<clipPath id="clip2">
  <path d="M 8.640625 50.558594 L 30 50.558594 L 30 73.554688 L 8.640625 73.554688 Z M 8.640625 50.558594 "/>
</clipPath>
</defs>
<g id="surface1">
<rect x="0" y="0" width="120" height="120" style="fill:rgb(0%,12.156863%,23.921569%);fill-opacity:1;stroke:none;"/>
<path style=" stroke:none;fill-rule:nonzero;fill:rgb(97.254902%,86.27451%,74.901961%);fill-opacity:1;" d="M 34.171875 63.636719 C 34.171875 60.703125 34.171875 57.523438 34.171875 54.589844 L 37.160156 54.589844 C 43.097656 54.589844 43.097656 63.636719 37.160156 63.636719 Z M 33.96875 54.386719 C 33.96875 57.539062 33.96875 60.6875 33.96875 63.839844 L 37.160156 63.839844 C 43.367188 63.839844 43.367188 54.386719 37.160156 54.386719 Z M 33.96875 54.386719 "/>
<path style=" stroke:none;fill-rule:nonzero;fill:rgb(97.254902%,86.27451%,74.901961%);fill-opacity:1;" d="M 43.003906 59.214844 L 47.898438 59.214844 L 47.898438 59 L 43.003906 59 L 43.003906 54.589844 L 48.007812 54.589844 L 48.007812 54.386719 L 42.785156 54.386719 L 42.785156 63.839844 L 48.03125 63.839844 L 48.03125 63.636719 L 43.003906 63.636719 Z M 43.003906 59.214844 "/>
<path style=" stroke:none;fill-rule:nonzero;fill:rgb(97.254902%,86.27451%,74.901961%);fill-opacity:1;" d="M 51.980469 63.878906 L 51.980469 54.589844 L 55.253906 54.589844 L 55.253906 54.375 L 48.503906 54.375 L 48.503906 54.589844 L 51.777344 54.589844 L 51.777344 63.878906 Z M 51.980469 63.878906 "/>
<path style=" stroke:none;fill-rule:nonzero;fill:rgb(97.254902%,86.27451%,74.901961%);fill-opacity:1;" d="M 59.390625 54.523438 L 61.703125 60.457031 L 57.09375 60.457031 Z M 63.085938 63.839844 L 63.3125 63.839844 L 59.511719 54.238281 L 59.28125 54.238281 L 55.484375 63.839844 L 55.714844 63.839844 L 56.996094 60.660156 L 61.785156 60.660156 Z M 63.085938 63.839844 "/>
<path style=" stroke:none;fill-rule:nonzero;fill:rgb(97.254902%,86.27451%,74.901961%);fill-opacity:1;" d="M 64.234375 54.386719 L 64.015625 54.386719 L 64.015625 63.839844 C 65.789062 63.839844 67.546875 63.839844 69.316406 63.839844 L 69.316406 63.625 L 64.234375 63.625 Z M 64.234375 54.386719 "/>
<path style=" stroke:none;fill-rule:nonzero;fill:rgb(97.254902%,86.27451%,74.901961%);fill-opacity:1;" d="M 76.09375 56.46875 L 76.296875 56.429688 L 76.28125 56.320312 C 75.820312 53.871094 71.925781 53.640625 70.546875 55.425781 C 70.195312 55.886719 70.046875 56.441406 70.101562 57.011719 C 70.34375 60.539062 75.6875 57.96875 76.296875 60.785156 C 76.6875 62.664062 74.902344 63.730469 73.253906 63.730469 C 71.96875 63.730469 70.386719 63.015625 70.238281 61.59375 L 70.222656 61.5 L 70.007812 61.527344 L 70.019531 61.621094 C 70.183594 63.148438 71.859375 63.933594 73.238281 63.933594 C 75.035156 63.933594 76.945312 62.746094 76.511719 60.742188 C 75.863281 57.714844 70.546875 60.308594 70.304688 56.996094 C 70.261719 56.46875 70.386719 55.96875 70.722656 55.550781 C 71.289062 54.804688 72.304688 54.480469 73.199219 54.46875 C 74.050781 54.453125 74.984375 54.710938 75.566406 55.332031 C 75.835938 55.632812 76 55.96875 76.078125 56.359375 Z M 76.09375 56.46875 "/>
<path style=" stroke:none;fill-rule:nonzero;fill:rgb(97.254902%,86.27451%,74.901961%);fill-opacity:1;" d="M 90.953125 57.265625 C 90.722656 56.710938 90.386719 56.210938 89.980469 55.792969 C 89.140625 54.925781 87.992188 54.398438 86.707031 54.398438 C 85.421875 54.398438 84.273438 54.925781 83.433594 55.792969 C 82.609375 56.644531 82.082031 57.820312 82.082031 59.121094 C 82.082031 60.433594 82.609375 61.609375 83.433594 62.460938 C 84.273438 63.328125 85.421875 63.855469 86.707031 63.855469 C 87.992188 63.855469 89.140625 63.328125 89.980469 62.460938 C 90.386719 62.042969 90.722656 61.542969 90.953125 60.984375 L 90.722656 60.984375 C 90.507812 61.484375 90.195312 61.921875 89.832031 62.296875 C 89.035156 63.125 87.925781 63.636719 86.707031 63.636719 C 85.492188 63.636719 84.378906 63.125 83.582031 62.296875 C 82.785156 61.484375 82.285156 60.363281 82.285156 59.121094 C 82.285156 57.890625 82.785156 56.765625 83.582031 55.941406 C 84.378906 55.117188 85.492188 54.617188 86.707031 54.617188 C 87.925781 54.617188 89.035156 55.117188 89.832031 55.941406 C 90.195312 56.320312 90.507812 56.765625 90.722656 57.265625 Z M 90.953125 57.265625 "/>
<path style=" stroke:none;fill-rule:nonzero;fill:rgb(97.254902%,86.27451%,74.901961%);fill-opacity:1;" d="M 95.28125 54.523438 L 97.59375 60.457031 L 92.980469 60.457031 Z M 98.972656 63.839844 L 99.203125 63.839844 L 95.402344 54.238281 L 95.171875 54.238281 L 91.371094 63.839844 L 91.601562 63.839844 L 92.886719 60.660156 L 97.675781 60.660156 Z M 98.972656 63.839844 "/>
<path style=" stroke:none;fill-rule:nonzero;fill:rgb(97.254902%,86.27451%,74.901961%);fill-opacity:1;" d="M 100.109375 54.589844 L 103.179688 54.589844 C 106.695312 54.589844 106.695312 59.703125 103.179688 59.703125 L 101.339844 59.703125 L 101.339844 59.90625 L 105.691406 63.839844 L 106.003906 63.839844 L 101.648438 59.90625 L 103.179688 59.90625 C 106.964844 59.90625 106.964844 54.375 103.179688 54.375 L 99.90625 54.375 L 99.90625 63.839844 L 100.109375 63.839844 Z M 100.109375 54.589844 "/>
<path style=" stroke:none;fill-rule:nonzero;fill:rgb(97.254902%,86.27451%,74.901961%);fill-opacity:1;" d="M 112.953125 56.46875 L 113.15625 56.429688 L 113.144531 56.320312 C 112.683594 53.871094 108.789062 53.640625 107.410156 55.425781 C 107.058594 55.886719 106.910156 56.441406 106.964844 57.011719 C 107.207031 60.539062 112.550781 57.96875 113.15625 60.785156 C 113.550781 62.664062 111.765625 63.730469 110.113281 63.730469 C 108.828125 63.730469 107.25 63.015625 107.097656 61.59375 L 107.085938 61.5 L 106.871094 61.527344 L 106.882812 61.621094 C 107.042969 63.148438 108.722656 63.933594 110.101562 63.933594 C 111.898438 63.933594 113.808594 62.746094 113.375 60.742188 C 112.722656 57.714844 107.410156 60.308594 107.167969 56.996094 C 107.125 56.46875 107.25 55.96875 107.585938 55.550781 C 108.152344 54.804688 109.167969 54.480469 110.0625 54.46875 C 110.914062 54.453125 111.84375 54.710938 112.425781 55.332031 C 112.699219 55.632812 112.859375 55.96875 112.941406 56.359375 Z M 112.953125 56.46875 "/>
<g clip-path="url(#clip1)" clip-rule="nonzero">
<path style=" stroke:none;fill-rule:nonzero;fill:rgb(97.254902%,86.27451%,74.901961%);fill-opacity:1;" d="M 19.042969 63.621094 C 18.863281 63.78125 18.675781 63.933594 18.484375 64.078125 C 17.53125 64.777344 16.390625 65.265625 15.117188 65.472656 C 13.765625 65.6875 12.292969 65.582031 10.792969 65.078125 C 9.242188 64.558594 7.867188 63.679688 6.75 62.554688 C 5.632812 61.433594 4.808594 60.101562 4.320312 58.6875 C 3.847656 57.324219 3.699219 55.921875 3.882812 54.582031 C 4.054688 53.320312 4.519531 52.144531 5.261719 51.128906 C 5.949219 50.183594 6.8125 49.46875 7.765625 48.96875 C 8.652344 48.503906 9.621094 48.222656 10.609375 48.113281 C 11.542969 48.011719 12.507812 48.066406 13.457031 48.269531 C 14.335938 48.457031 15.21875 48.777344 16.074219 49.234375 L 17.441406 49.234375 L 17.125 48.375 C 17.082031 48.34375 17.035156 48.316406 16.992188 48.289062 C 16.945312 48.261719 16.902344 48.234375 16.855469 48.207031 C 16.808594 48.179688 16.765625 48.152344 16.71875 48.125 C 16.671875 48.097656 16.625 48.074219 16.578125 48.046875 C 16.53125 48.019531 16.484375 47.992188 16.4375 47.96875 C 16.390625 47.941406 16.34375 47.917969 16.296875 47.890625 C 16.25 47.867188 16.203125 47.839844 16.15625 47.816406 C 16.109375 47.792969 16.0625 47.765625 16.015625 47.742188 L 15.285156 48.03125 C 15.195312 47.992188 15.105469 47.957031 15.015625 47.921875 C 14.925781 47.886719 14.835938 47.851562 14.746094 47.816406 C 14.65625 47.785156 14.566406 47.753906 14.476562 47.722656 C 14.386719 47.691406 14.292969 47.660156 14.203125 47.632812 L 13.519531 46.792969 C 13.414062 46.765625 13.304688 46.738281 13.199219 46.710938 C 13.089844 46.6875 12.984375 46.664062 12.875 46.640625 C 12.765625 46.617188 12.65625 46.597656 12.546875 46.578125 C 12.4375 46.558594 12.328125 46.539062 12.21875 46.519531 L 11.699219 47.152344 C 11.601562 47.144531 11.5 47.140625 11.402344 47.132812 C 11.300781 47.128906 11.199219 47.128906 11.101562 47.125 C 11 47.125 10.898438 47.125 10.796875 47.125 C 10.699219 47.128906 10.597656 47.128906 10.496094 47.132812 L 9.394531 46.433594 C 9.277344 46.445312 9.160156 46.457031 9.042969 46.46875 C 8.925781 46.484375 8.808594 46.5 8.691406 46.519531 C 8.570312 46.539062 8.453125 46.558594 8.335938 46.578125 C 8.214844 46.601562 8.097656 46.628906 7.980469 46.652344 L 7.832031 47.621094 C 7.734375 47.65625 7.632812 47.691406 7.53125 47.730469 C 7.429688 47.765625 7.328125 47.804688 7.230469 47.847656 C 7.128906 47.890625 7.027344 47.933594 6.929688 47.980469 C 6.828125 48.023438 6.730469 48.074219 6.632812 48.121094 L 5.089844 47.761719 C 4.980469 47.824219 4.867188 47.890625 4.753906 47.960938 C 4.644531 48.03125 4.53125 48.101562 4.421875 48.175781 C 4.3125 48.253906 4.203125 48.328125 4.09375 48.410156 C 3.984375 48.492188 3.875 48.574219 3.769531 48.660156 L 4.242188 49.886719 C 4.203125 49.929688 4.160156 49.972656 4.121094 50.019531 C 4.078125 50.0625 4.039062 50.105469 4 50.152344 C 3.960938 50.199219 3.921875 50.242188 3.882812 50.289062 C 3.839844 50.335938 3.800781 50.382812 3.765625 50.433594 C 3.726562 50.480469 3.6875 50.527344 3.648438 50.578125 C 3.609375 50.625 3.574219 50.675781 3.539062 50.726562 C 3.5 50.773438 3.464844 50.824219 3.429688 50.875 C 3.390625 50.925781 3.359375 50.976562 3.324219 51.027344 L 1.453125 51.328125 C 1.375 51.460938 1.296875 51.597656 1.226562 51.734375 C 1.152344 51.871094 1.082031 52.007812 1.015625 52.148438 C 0.949219 52.292969 0.882812 52.433594 0.824219 52.578125 C 0.761719 52.726562 0.703125 52.875 0.648438 53.023438 L 1.984375 54.199219 C 1.953125 54.335938 1.925781 54.476562 1.902344 54.617188 C 1.878906 54.757812 1.859375 54.902344 1.84375 55.046875 C 1.828125 55.191406 1.8125 55.335938 1.800781 55.480469 C 1.792969 55.628906 1.785156 55.773438 1.78125 55.921875 L 0.015625 57.199219 C 0.0273438 57.382812 0.0390625 57.570312 0.0546875 57.753906 C 0.0742188 57.9375 0.09375 58.125 0.121094 58.308594 C 0.144531 58.496094 0.175781 58.683594 0.210938 58.871094 C 0.25 59.058594 0.289062 59.246094 0.332031 59.433594 L 2.472656 59.949219 C 2.53125 60.105469 2.59375 60.261719 2.65625 60.414062 C 2.722656 60.566406 2.792969 60.71875 2.863281 60.871094 C 2.9375 61.023438 3.015625 61.175781 3.09375 61.324219 C 3.171875 61.476562 3.257812 61.625 3.34375 61.769531 L 2.398438 63.925781 C 2.519531 64.09375 2.644531 64.257812 2.773438 64.421875 C 2.902344 64.585938 3.035156 64.746094 3.171875 64.902344 C 3.308594 65.0625 3.453125 65.21875 3.597656 65.367188 C 3.742188 65.519531 3.890625 65.671875 4.042969 65.816406 L 6.320312 65.152344 C 6.457031 65.261719 6.59375 65.363281 6.734375 65.464844 C 6.878906 65.566406 7.019531 65.664062 7.167969 65.757812 C 7.3125 65.851562 7.457031 65.941406 7.609375 66.03125 C 7.757812 66.121094 7.910156 66.203125 8.0625 66.285156 L 8.339844 68.554688 C 8.433594 68.59375 8.527344 68.628906 8.621094 68.664062 C 8.714844 68.699219 8.8125 68.730469 8.90625 68.765625 C 9.003906 68.796875 9.097656 68.828125 9.195312 68.859375 C 9.289062 68.886719 9.386719 68.917969 9.480469 68.945312 C 9.578125 68.972656 9.671875 68.996094 9.769531 69.023438 C 9.867188 69.046875 9.960938 69.074219 10.058594 69.09375 C 10.152344 69.117188 10.25 69.140625 10.34375 69.160156 C 10.441406 69.179688 10.535156 69.199219 10.628906 69.214844 L 12.164062 67.566406 C 12.324219 67.585938 12.480469 67.597656 12.640625 67.609375 C 12.796875 67.617188 12.953125 67.625 13.105469 67.628906 C 13.261719 67.632812 13.414062 67.632812 13.566406 67.628906 C 13.714844 67.625 13.863281 67.617188 14.015625 67.609375 L 15.136719 69.1875 C 15.304688 69.152344 15.472656 69.113281 15.640625 69.070312 C 15.804688 69.027344 15.964844 68.980469 16.125 68.929688 C 16.285156 68.882812 16.441406 68.828125 16.597656 68.769531 C 16.75 68.714844 16.902344 68.65625 17.050781 68.59375 L 17.550781 66.664062 C 17.671875 66.605469 17.789062 66.542969 17.90625 66.480469 C 18.019531 66.417969 18.132812 66.351562 18.242188 66.28125 C 18.351562 66.214844 18.460938 66.148438 18.566406 66.078125 C 18.671875 66.003906 18.777344 65.933594 18.878906 65.859375 L 20.183594 66.53125 C 20.285156 66.429688 20.386719 66.328125 20.484375 66.226562 C 20.582031 66.121094 20.675781 66.015625 20.769531 65.910156 C 20.859375 65.804688 20.949219 65.699219 21.035156 65.589844 C 21.121094 65.480469 21.207031 65.371094 21.289062 65.261719 L 21.019531 63.621094 L 19.042969 63.621094 "/>
</g>
<g clip-path="url(#clip2)" clip-rule="nonzero">
<path style=" stroke:none;fill-rule:nonzero;fill:rgb(90.980392%,47.843137%,0%);fill-opacity:1;" d="M 10.957031 56.367188 C 11.136719 56.207031 11.324219 56.054688 11.515625 55.910156 C 12.46875 55.210938 13.609375 54.722656 14.882812 54.515625 C 16.234375 54.296875 17.707031 54.40625 19.207031 54.910156 C 20.757812 55.429688 22.128906 56.304688 23.25 57.433594 C 24.367188 58.554688 25.191406 59.886719 25.679688 61.296875 C 26.152344 62.664062 26.300781 64.066406 26.117188 65.40625 C 25.945312 66.667969 25.480469 67.84375 24.738281 68.859375 C 24.050781 69.804688 23.1875 70.519531 22.234375 71.019531 C 21.347656 71.484375 20.378906 71.765625 19.390625 71.875 C 18.457031 71.976562 17.492188 71.921875 16.542969 71.71875 C 15.664062 71.53125 14.78125 71.207031 13.929688 70.75 L 12.558594 70.75 L 12.875 71.613281 C 12.917969 71.640625 12.964844 71.671875 13.007812 71.699219 C 13.054688 71.726562 13.097656 71.753906 13.144531 71.78125 C 13.191406 71.808594 13.234375 71.835938 13.28125 71.859375 C 13.328125 71.890625 13.375 71.914062 13.421875 71.941406 C 13.46875 71.96875 13.515625 71.992188 13.5625 72.019531 C 13.609375 72.046875 13.65625 72.070312 13.703125 72.097656 C 13.75 72.121094 13.796875 72.144531 13.84375 72.171875 C 13.890625 72.195312 13.9375 72.21875 13.984375 72.242188 L 14.714844 71.953125 C 14.804688 71.992188 14.894531 72.03125 14.984375 72.066406 C 15.074219 72.101562 15.164062 72.136719 15.253906 72.171875 C 15.34375 72.203125 15.433594 72.234375 15.523438 72.265625 C 15.613281 72.296875 15.707031 72.328125 15.796875 72.355469 L 16.480469 73.195312 C 16.585938 73.222656 16.695312 73.25 16.800781 73.277344 C 16.910156 73.300781 17.015625 73.324219 17.125 73.347656 C 17.234375 73.371094 17.34375 73.390625 17.453125 73.410156 C 17.5625 73.429688 17.671875 73.449219 17.78125 73.464844 L 18.300781 72.835938 C 18.398438 72.84375 18.5 72.847656 18.597656 72.855469 C 18.699219 72.859375 18.800781 72.859375 18.898438 72.863281 C 19 72.863281 19.101562 72.863281 19.203125 72.863281 C 19.300781 72.859375 19.402344 72.859375 19.503906 72.855469 L 20.605469 73.554688 C 20.722656 73.542969 20.839844 73.53125 20.957031 73.515625 C 21.074219 73.503906 21.191406 73.484375 21.308594 73.46875 C 21.429688 73.449219 21.546875 73.429688 21.664062 73.40625 C 21.785156 73.386719 21.902344 73.359375 22.019531 73.332031 L 22.167969 72.363281 C 22.265625 72.332031 22.367188 72.296875 22.46875 72.257812 C 22.570312 72.222656 22.671875 72.179688 22.769531 72.140625 C 22.871094 72.097656 22.972656 72.054688 23.070312 72.011719 C 23.171875 71.964844 23.269531 71.917969 23.367188 71.867188 L 24.910156 72.226562 C 25.023438 72.164062 25.132812 72.097656 25.246094 72.027344 C 25.359375 71.957031 25.46875 71.886719 25.578125 71.808594 C 25.6875 71.734375 25.796875 71.65625 25.90625 71.578125 C 26.015625 71.496094 26.125 71.414062 26.230469 71.328125 L 25.757812 70.101562 C 25.796875 70.058594 25.839844 70.015625 25.878906 69.96875 C 25.921875 69.925781 25.960938 69.882812 26 69.835938 C 26.039062 69.789062 26.078125 69.742188 26.117188 69.699219 C 26.160156 69.652344 26.199219 69.605469 26.234375 69.554688 C 26.273438 69.507812 26.3125 69.457031 26.351562 69.410156 C 26.390625 69.363281 26.425781 69.3125 26.460938 69.261719 C 26.5 69.210938 26.535156 69.164062 26.570312 69.113281 C 26.609375 69.0625 26.640625 69.011719 26.675781 68.957031 L 28.546875 68.660156 C 28.625 68.527344 28.703125 68.390625 28.773438 68.253906 C 28.847656 68.117188 28.917969 67.980469 28.984375 67.839844 C 29.050781 67.695312 29.117188 67.550781 29.175781 67.40625 C 29.238281 67.261719 29.296875 67.113281 29.351562 66.964844 L 28.015625 65.792969 C 28.046875 65.652344 28.074219 65.511719 28.097656 65.371094 C 28.121094 65.230469 28.140625 65.085938 28.15625 64.941406 C 28.171875 64.796875 28.1875 64.652344 28.199219 64.507812 C 28.207031 64.359375 28.214844 64.210938 28.21875 64.0625 L 29.984375 62.789062 C 29.972656 62.605469 29.960938 62.421875 29.945312 62.234375 C 29.925781 62.046875 29.90625 61.863281 29.878906 61.675781 C 29.855469 61.488281 29.824219 61.300781 29.789062 61.117188 C 29.75 60.929688 29.710938 60.742188 29.667969 60.554688 L 27.527344 60.039062 C 27.46875 59.882812 27.40625 59.726562 27.339844 59.574219 C 27.277344 59.421875 27.207031 59.265625 27.136719 59.117188 C 27.0625 58.964844 26.984375 58.8125 26.90625 58.664062 C 26.828125 58.511719 26.742188 58.363281 26.65625 58.214844 L 27.601562 56.0625 C 27.480469 55.894531 27.355469 55.730469 27.226562 55.566406 C 27.097656 55.402344 26.964844 55.242188 26.828125 55.082031 C 26.691406 54.925781 26.546875 54.769531 26.402344 54.617188 C 26.257812 54.464844 26.109375 54.316406 25.957031 54.171875 L 23.679688 54.832031 C 23.542969 54.726562 23.40625 54.625 23.265625 54.523438 C 23.121094 54.421875 22.980469 54.324219 22.832031 54.230469 C 22.6875 54.136719 22.542969 54.046875 22.390625 53.957031 C 22.242188 53.867188 22.089844 53.785156 21.9375 53.703125 L 21.660156 51.429688 C 21.566406 51.394531 21.472656 51.359375 21.378906 51.324219 C 21.285156 51.289062 21.1875 51.257812 21.09375 51.222656 C 21 51.191406 20.902344 51.160156 20.804688 51.128906 C 20.710938 51.101562 20.613281 51.070312 20.519531 51.042969 C 20.421875 51.015625 20.328125 50.988281 20.230469 50.964844 C 20.132812 50.9375 20.039062 50.914062 19.941406 50.890625 C 19.847656 50.871094 19.75 50.847656 19.65625 50.828125 C 19.558594 50.808594 19.464844 50.789062 19.371094 50.769531 L 17.835938 52.421875 C 17.675781 52.402344 17.519531 52.390625 17.359375 52.378906 C 17.203125 52.367188 17.046875 52.359375 16.894531 52.359375 C 16.738281 52.355469 16.585938 52.355469 16.433594 52.359375 C 16.285156 52.363281 16.132812 52.371094 15.984375 52.382812 L 14.863281 50.796875 C 14.695312 50.835938 14.527344 50.875 14.359375 50.917969 C 14.195312 50.960938 14.035156 51.007812 13.875 51.058594 C 13.714844 51.105469 13.558594 51.160156 13.402344 51.214844 C 13.25 51.273438 13.097656 51.332031 12.949219 51.394531 L 12.445312 53.324219 C 12.328125 53.382812 12.210938 53.445312 12.09375 53.507812 C 11.980469 53.570312 11.867188 53.636719 11.757812 53.703125 C 11.648438 53.769531 11.539062 53.839844 11.433594 53.914062 C 11.328125 53.984375 11.222656 54.054688 11.121094 54.128906 L 9.816406 53.457031 C 9.714844 53.558594 9.613281 53.660156 9.515625 53.761719 C 9.417969 53.867188 9.324219 53.96875 9.230469 54.078125 C 9.140625 54.183594 9.050781 54.289062 8.964844 54.398438 C 8.878906 54.507812 8.792969 54.617188 8.710938 54.726562 L 8.980469 56.367188 L 10.957031 56.367188 "/>
</g>
<path style=" stroke:none;fill-rule:nonzero;fill:rgb(97.254902%,86.27451%,74.901961%);fill-opacity:1;" d="M 61.082031 71.527344 L 60.894531 72.371094 L 60.699219 72.371094 L 60.851562 71.703125 L 59.027344 71.703125 L 58.871094 72.371094 L 58.679688 72.371094 L 58.882812 71.527344 L 59.03125 71.527344 C 59.253906 71.265625 59.472656 70.914062 59.679688 70.476562 C 59.894531 70.035156 60.097656 69.523438 60.292969 68.941406 L 61.3125 68.941406 L 60.761719 71.527344 Z M 60.429688 69.121094 C 60.246094 69.667969 60.050781 70.148438 59.847656 70.566406 C 59.640625 70.980469 59.445312 71.300781 59.25 71.527344 L 60.570312 71.527344 L 61.074219 69.121094 Z M 60.429688 69.121094 "/>
<path style=" stroke:none;fill-rule:nonzero;fill:rgb(97.254902%,86.27451%,74.901961%);fill-opacity:1;" d="M 62.652344 71.742188 C 62.433594 71.742188 62.265625 71.671875 62.144531 71.535156 C 62.019531 71.394531 61.957031 71.203125 61.957031 70.957031 C 61.957031 70.730469 62.003906 70.511719 62.09375 70.300781 C 62.183594 70.089844 62.304688 69.925781 62.464844 69.800781 C 62.621094 69.679688 62.792969 69.617188 62.984375 69.617188 C 63.125 69.617188 63.238281 69.65625 63.324219 69.730469 C 63.410156 69.808594 63.453125 69.914062 63.453125 70.046875 C 63.453125 70.273438 63.347656 70.445312 63.144531 70.566406 C 62.9375 70.6875 62.632812 70.746094 62.226562 70.746094 L 62.167969 70.746094 C 62.15625 70.804688 62.152344 70.863281 62.152344 70.929688 C 62.152344 71.140625 62.199219 71.296875 62.292969 71.40625 C 62.386719 71.515625 62.519531 71.570312 62.699219 71.570312 C 62.863281 71.570312 63.039062 71.523438 63.21875 71.429688 L 63.21875 71.609375 C 63.039062 71.699219 62.851562 71.742188 62.652344 71.742188 Z M 62.957031 69.78125 C 62.792969 69.78125 62.640625 69.855469 62.496094 70 C 62.359375 70.144531 62.253906 70.339844 62.191406 70.582031 L 62.28125 70.582031 C 62.933594 70.582031 63.261719 70.410156 63.261719 70.070312 C 63.261719 69.988281 63.234375 69.921875 63.179688 69.867188 C 63.125 69.808594 63.050781 69.78125 62.957031 69.78125 Z M 62.957031 69.78125 "/>
<path style=" stroke:none;fill-rule:nonzero;fill:rgb(97.254902%,86.27451%,74.901961%);fill-opacity:1;" d="M 65.4375 71.703125 L 65.71875 70.429688 C 65.746094 70.269531 65.761719 70.167969 65.761719 70.121094 C 65.761719 69.894531 65.664062 69.78125 65.472656 69.78125 C 65.339844 69.78125 65.210938 69.824219 65.09375 69.910156 C 64.976562 69.996094 64.875 70.113281 64.792969 70.265625 C 64.710938 70.417969 64.648438 70.597656 64.609375 70.804688 L 64.417969 71.703125 L 64.234375 71.703125 L 64.667969 69.652344 L 64.824219 69.652344 L 64.757812 70.046875 L 64.769531 70.046875 C 64.871094 69.902344 64.984375 69.796875 65.113281 69.726562 C 65.238281 69.652344 65.371094 69.617188 65.511719 69.617188 C 65.644531 69.617188 65.746094 69.660156 65.816406 69.746094 C 65.890625 69.828125 65.929688 69.953125 65.933594 70.109375 L 65.949219 70.109375 C 66.042969 69.953125 66.15625 69.828125 66.289062 69.746094 C 66.417969 69.660156 66.558594 69.617188 66.707031 69.617188 C 66.855469 69.617188 66.96875 69.65625 67.046875 69.734375 C 67.128906 69.8125 67.171875 69.921875 67.171875 70.066406 C 67.171875 70.105469 67.171875 70.140625 67.167969 70.175781 C 67.164062 70.210938 67.152344 70.285156 67.132812 70.402344 L 66.847656 71.703125 L 66.65625 71.703125 L 66.9375 70.417969 C 66.96875 70.265625 66.984375 70.15625 66.984375 70.085938 C 66.984375 69.988281 66.957031 69.914062 66.902344 69.859375 C 66.847656 69.808594 66.773438 69.78125 66.675781 69.78125 C 66.480469 69.78125 66.304688 69.867188 66.152344 70.042969 C 66.003906 70.214844 65.898438 70.441406 65.835938 70.722656 L 65.632812 71.703125 Z M 65.4375 71.703125 "/>
<path style=" stroke:none;fill-rule:nonzero;fill:rgb(97.254902%,86.27451%,74.901961%);fill-opacity:1;" d="M 69.214844 69.617188 C 69.507812 69.617188 69.683594 69.753906 69.746094 70.03125 L 69.753906 70.03125 L 69.863281 69.652344 L 70.015625 69.652344 L 69.585938 71.703125 L 69.429688 71.703125 L 69.515625 71.1875 L 69.503906 71.1875 C 69.398438 71.363281 69.28125 71.5 69.148438 71.597656 C 69.019531 71.695312 68.871094 71.742188 68.703125 71.742188 C 68.347656 71.742188 68.167969 71.503906 68.167969 71.03125 C 68.167969 70.785156 68.214844 70.550781 68.308594 70.328125 C 68.40625 70.101562 68.53125 69.925781 68.691406 69.800781 C 68.851562 69.679688 69.023438 69.617188 69.214844 69.617188 Z M 68.746094 71.570312 C 68.855469 71.570312 68.96875 71.535156 69.078125 71.457031 C 69.191406 71.375 69.292969 71.269531 69.378906 71.140625 C 69.46875 71.007812 69.539062 70.863281 69.585938 70.707031 C 69.632812 70.546875 69.65625 70.410156 69.65625 70.300781 C 69.65625 70.203125 69.636719 70.113281 69.605469 70.035156 C 69.570312 69.957031 69.523438 69.894531 69.460938 69.851562 C 69.394531 69.804688 69.316406 69.78125 69.21875 69.78125 C 69.0625 69.78125 68.921875 69.832031 68.792969 69.9375 C 68.671875 70.039062 68.566406 70.195312 68.484375 70.402344 C 68.40625 70.605469 68.363281 70.808594 68.363281 71.011719 C 68.363281 71.203125 68.394531 71.347656 68.460938 71.4375 C 68.523438 71.527344 68.617188 71.570312 68.746094 71.570312 Z M 68.746094 71.570312 "/>
<path style=" stroke:none;fill-rule:nonzero;fill:rgb(97.254902%,86.27451%,74.901961%);fill-opacity:1;" d="M 72.066406 71.703125 L 71.882812 71.703125 L 72.292969 69.800781 C 72.242188 69.796875 72.195312 69.792969 72.152344 69.792969 C 72.035156 69.792969 71.9375 69.816406 71.859375 69.867188 C 71.789062 69.917969 71.71875 70 71.652344 70.121094 C 71.582031 70.238281 71.507812 70.429688 71.421875 70.695312 C 71.3125 71.015625 71.222656 71.238281 71.152344 71.367188 C 71.082031 71.488281 71.007812 71.578125 70.925781 71.636719 C 70.84375 71.695312 70.742188 71.722656 70.621094 71.722656 C 70.574219 71.722656 70.535156 71.714844 70.507812 71.707031 L 70.507812 71.535156 C 70.539062 71.546875 70.574219 71.550781 70.617188 71.550781 C 70.707031 71.550781 70.785156 71.527344 70.847656 71.480469 C 70.90625 71.429688 70.964844 71.347656 71.019531 71.230469 C 71.082031 71.113281 71.15625 70.917969 71.25 70.640625 C 71.355469 70.328125 71.449219 70.109375 71.527344 69.984375 C 71.605469 69.859375 71.695312 69.769531 71.796875 69.714844 C 71.898438 69.660156 72.027344 69.632812 72.175781 69.632812 C 72.277344 69.632812 72.382812 69.644531 72.5 69.667969 Z M 72.066406 71.703125 "/>
<path style=" stroke:none;fill-rule:nonzero;fill:rgb(97.254902%,86.27451%,74.901961%);fill-opacity:1;" d="M 73.542969 71.703125 L 73.359375 71.703125 L 73.792969 69.652344 L 73.972656 69.652344 Z M 73.875 69.121094 C 73.875 69.054688 73.886719 69 73.914062 68.960938 C 73.945312 68.917969 73.980469 68.894531 74.03125 68.894531 C 74.101562 68.894531 74.140625 68.941406 74.140625 69.03125 C 74.140625 69.101562 74.125 69.160156 74.09375 69.203125 C 74.066406 69.242188 74.03125 69.261719 73.988281 69.261719 C 73.953125 69.261719 73.925781 69.25 73.90625 69.226562 C 73.882812 69.203125 73.875 69.167969 73.875 69.121094 Z M 73.875 69.121094 "/>
<path style=" stroke:none;fill-rule:nonzero;fill:rgb(97.254902%,86.27451%,74.901961%);fill-opacity:1;" d="M 78.222656 69.859375 C 78.222656 70.089844 78.1875 70.324219 78.121094 70.570312 C 78.058594 70.820312 77.972656 71.03125 77.863281 71.210938 C 77.753906 71.390625 77.632812 71.519531 77.492188 71.609375 C 77.355469 71.699219 77.207031 71.742188 77.046875 71.742188 C 76.859375 71.742188 76.714844 71.679688 76.613281 71.550781 C 76.511719 71.425781 76.460938 71.25 76.460938 71.03125 C 76.460938 70.800781 76.507812 70.578125 76.601562 70.367188 C 76.695312 70.148438 76.820312 69.984375 76.972656 69.867188 C 77.125 69.746094 77.296875 69.6875 77.484375 69.6875 C 77.753906 69.6875 77.933594 69.816406 78.019531 70.078125 L 78.027344 70.078125 C 78.035156 70.042969 78.039062 69.980469 78.039062 69.886719 C 78.039062 69.550781 77.992188 69.300781 77.898438 69.140625 C 77.808594 68.980469 77.671875 68.894531 77.488281 68.894531 C 77.421875 68.894531 77.347656 68.910156 77.269531 68.929688 C 77.191406 68.953125 77.128906 68.980469 77.082031 69.011719 L 77.007812 68.855469 C 77.070312 68.820312 77.148438 68.789062 77.238281 68.765625 C 77.332031 68.738281 77.417969 68.726562 77.503906 68.726562 C 77.75 68.726562 77.929688 68.820312 78.046875 69.007812 C 78.164062 69.191406 78.222656 69.476562 78.222656 69.859375 Z M 77.078125 71.570312 C 77.28125 71.570312 77.460938 71.460938 77.621094 71.242188 C 77.785156 71.019531 77.90625 70.722656 77.984375 70.347656 C 77.894531 70.015625 77.722656 69.847656 77.472656 69.847656 C 77.328125 69.847656 77.195312 69.902344 77.066406 70.011719 C 76.941406 70.121094 76.839844 70.265625 76.769531 70.445312 C 76.695312 70.625 76.65625 70.816406 76.65625 71.011719 C 76.65625 71.386719 76.796875 71.570312 77.078125 71.570312 Z M 77.078125 71.570312 "/>
<path style=" stroke:none;fill-rule:nonzero;fill:rgb(97.254902%,86.27451%,74.901961%);fill-opacity:1;" d="M 80.320312 71.703125 L 80.132812 71.703125 L 80.542969 69.800781 C 80.496094 69.796875 80.445312 69.792969 80.40625 69.792969 C 80.289062 69.792969 80.191406 69.816406 80.113281 69.867188 C 80.039062 69.917969 79.972656 70 79.90625 70.121094 C 79.835938 70.238281 79.761719 70.429688 79.675781 70.695312 C 79.566406 71.015625 79.476562 71.238281 79.40625 71.367188 C 79.335938 71.488281 79.261719 71.578125 79.179688 71.636719 C 79.097656 71.695312 78.996094 71.722656 78.875 71.722656 C 78.828125 71.722656 78.789062 71.714844 78.757812 71.707031 L 78.757812 71.535156 C 78.792969 71.546875 78.828125 71.550781 78.871094 71.550781 C 78.960938 71.550781 79.039062 71.527344 79.101562 71.480469 C 79.160156 71.429688 79.21875 71.347656 79.273438 71.230469 C 79.335938 71.113281 79.410156 70.917969 79.503906 70.640625 C 79.609375 70.328125 79.703125 70.109375 79.78125 69.984375 C 79.859375 69.859375 79.949219 69.769531 80.050781 69.714844 C 80.152344 69.660156 80.28125 69.632812 80.429688 69.632812 C 80.53125 69.632812 80.636719 69.644531 80.753906 69.667969 Z M 80.320312 71.703125 "/>
<path style=" stroke:none;fill-rule:nonzero;fill:rgb(97.254902%,86.27451%,74.901961%);fill-opacity:1;" d="M 82.589844 70.792969 C 82.484375 70.792969 82.398438 70.804688 82.332031 70.832031 C 82.265625 70.855469 82.210938 70.894531 82.164062 70.953125 C 82.117188 71.003906 82.054688 71.109375 81.984375 71.269531 C 81.917969 71.414062 81.867188 71.511719 81.828125 71.5625 C 81.789062 71.609375 81.742188 71.648438 81.6875 71.675781 C 81.636719 71.703125 81.574219 71.714844 81.492188 71.714844 C 81.453125 71.714844 81.421875 71.710938 81.398438 71.707031 L 81.398438 71.546875 C 81.414062 71.554688 81.441406 71.554688 81.472656 71.554688 C 81.546875 71.554688 81.605469 71.535156 81.652344 71.492188 C 81.699219 71.449219 81.753906 71.351562 81.816406 71.203125 C 81.878906 71.0625 81.9375 70.957031 81.992188 70.890625 C 82.054688 70.824219 82.125 70.777344 82.207031 70.746094 C 82.074219 70.71875 81.972656 70.667969 81.902344 70.589844 C 81.832031 70.515625 81.796875 70.414062 81.796875 70.285156 C 81.796875 70.152344 81.828125 70.039062 81.886719 69.945312 C 81.949219 69.855469 82.03125 69.78125 82.132812 69.730469 C 82.238281 69.679688 82.359375 69.652344 82.492188 69.652344 L 83.28125 69.652344 L 82.847656 71.703125 L 82.664062 71.703125 L 82.859375 70.792969 Z M 82.511719 69.800781 C 82.347656 69.800781 82.21875 69.84375 82.128906 69.929688 C 82.035156 70.015625 81.988281 70.128906 81.988281 70.277344 C 81.988281 70.523438 82.164062 70.644531 82.511719 70.644531 L 82.894531 70.644531 L 83.066406 69.800781 Z M 82.511719 69.800781 "/>
<path style=" stroke:none;fill-rule:nonzero;fill:rgb(97.254902%,86.27451%,74.901961%);fill-opacity:1;" d="M 86.859375 69.617188 C 87.042969 69.617188 87.191406 69.660156 87.292969 69.75 C 87.394531 69.839844 87.449219 69.964844 87.449219 70.121094 C 87.449219 70.269531 87.402344 70.394531 87.308594 70.484375 C 87.21875 70.578125 87.089844 70.644531 86.917969 70.679688 L 86.917969 70.6875 C 87.046875 70.710938 87.148438 70.761719 87.222656 70.835938 C 87.300781 70.910156 87.339844 71.003906 87.339844 71.117188 C 87.339844 71.234375 87.304688 71.34375 87.238281 71.4375 C 87.175781 71.53125 87.082031 71.605469 86.964844 71.660156 C 86.84375 71.714844 86.699219 71.742188 86.535156 71.742188 C 86.289062 71.742188 86.101562 71.671875 85.972656 71.527344 C 85.847656 71.378906 85.785156 71.171875 85.785156 70.90625 C 85.785156 70.671875 85.828125 70.457031 85.917969 70.257812 C 86.011719 70.054688 86.140625 69.898438 86.304688 69.785156 C 86.46875 69.671875 86.65625 69.617188 86.859375 69.617188 Z M 85.972656 70.78125 L 85.972656 70.921875 C 85.972656 71.136719 86.023438 71.296875 86.125 71.40625 C 86.222656 71.515625 86.371094 71.570312 86.566406 71.570312 C 86.75 71.570312 86.886719 71.535156 86.988281 71.457031 C 87.089844 71.375 87.144531 71.269531 87.144531 71.132812 C 87.144531 70.898438 86.972656 70.78125 86.632812 70.78125 Z M 86.84375 69.78125 C 86.636719 69.78125 86.453125 69.859375 86.296875 70.011719 C 86.140625 70.160156 86.039062 70.363281 85.988281 70.617188 L 86.441406 70.617188 C 86.710938 70.617188 86.910156 70.578125 87.046875 70.496094 C 87.183594 70.414062 87.253906 70.296875 87.253906 70.140625 C 87.253906 70.03125 87.21875 69.945312 87.148438 69.882812 C 87.078125 69.816406 86.976562 69.78125 86.84375 69.78125 Z M 86.84375 69.78125 "/>
<path style=" stroke:none;fill-rule:nonzero;fill:rgb(97.254902%,86.27451%,74.901961%);fill-opacity:1;" d="M 89.410156 69.617188 C 89.703125 69.617188 89.882812 69.753906 89.941406 70.03125 L 89.953125 70.03125 L 90.0625 69.652344 L 90.210938 69.652344 L 89.78125 71.703125 L 89.625 71.703125 L 89.710938 71.1875 L 89.703125 71.1875 C 89.59375 71.363281 89.476562 71.5 89.347656 71.597656 C 89.214844 71.695312 89.066406 71.742188 88.902344 71.742188 C 88.542969 71.742188 88.367188 71.503906 88.367188 71.03125 C 88.367188 70.785156 88.414062 70.550781 88.507812 70.328125 C 88.601562 70.101562 88.730469 69.925781 88.886719 69.800781 C 89.046875 69.679688 89.222656 69.617188 89.410156 69.617188 Z M 88.941406 71.570312 C 89.054688 71.570312 89.167969 71.535156 89.277344 71.457031 C 89.390625 71.375 89.488281 71.269531 89.578125 71.140625 C 89.667969 71.007812 89.734375 70.863281 89.78125 70.707031 C 89.828125 70.546875 89.851562 70.410156 89.851562 70.300781 C 89.851562 70.203125 89.832031 70.113281 89.800781 70.035156 C 89.769531 69.957031 89.71875 69.894531 89.65625 69.851562 C 89.59375 69.804688 89.511719 69.78125 89.417969 69.78125 C 89.257812 69.78125 89.117188 69.832031 88.992188 69.9375 C 88.867188 70.039062 88.765625 70.195312 88.679688 70.402344 C 88.601562 70.605469 88.5625 70.808594 88.5625 71.011719 C 88.5625 71.203125 88.59375 71.347656 88.65625 71.4375 C 88.71875 71.527344 88.8125 71.570312 88.941406 71.570312 Z M 88.941406 71.570312 "/>
<path style=" stroke:none;fill-rule:nonzero;fill:rgb(97.254902%,86.27451%,74.901961%);fill-opacity:1;" d="M 92.847656 69.652344 L 92.574219 70.921875 C 92.539062 71.078125 92.523438 71.179688 92.523438 71.226562 C 92.523438 71.34375 92.546875 71.429688 92.59375 71.484375 C 92.644531 71.542969 92.714844 71.570312 92.8125 71.570312 C 92.945312 71.570312 93.070312 71.53125 93.1875 71.445312 C 93.308594 71.359375 93.40625 71.242188 93.488281 71.089844 C 93.570312 70.9375 93.632812 70.757812 93.679688 70.546875 L 93.871094 69.652344 L 94.054688 69.652344 L 93.617188 71.703125 L 93.46875 71.703125 L 93.527344 71.300781 L 93.519531 71.300781 C 93.3125 71.589844 93.070312 71.730469 92.789062 71.730469 C 92.648438 71.730469 92.539062 71.691406 92.46875 71.605469 C 92.398438 71.519531 92.359375 71.394531 92.359375 71.234375 L 92.347656 71.234375 C 92.253906 71.394531 92.140625 71.519531 92.007812 71.605469 C 91.878906 71.691406 91.734375 71.730469 91.582031 71.730469 C 91.433594 71.730469 91.320312 71.695312 91.238281 71.617188 C 91.152344 71.539062 91.113281 71.429688 91.113281 71.285156 C 91.113281 71.246094 91.113281 71.210938 91.117188 71.175781 C 91.121094 71.144531 91.132812 71.070312 91.152344 70.953125 L 91.441406 69.652344 L 91.632812 69.652344 L 91.347656 70.929688 C 91.316406 71.082031 91.304688 71.195312 91.304688 71.265625 C 91.304688 71.359375 91.328125 71.433594 91.382812 71.492188 C 91.433594 71.546875 91.511719 71.570312 91.609375 71.570312 C 91.804688 71.570312 91.980469 71.484375 92.132812 71.3125 C 92.285156 71.136719 92.390625 70.90625 92.449219 70.621094 L 92.65625 69.652344 Z M 92.847656 69.652344 "/>
<path style=" stroke:none;fill-rule:nonzero;fill:rgb(97.254902%,86.27451%,74.901961%);fill-opacity:1;" d="M 96 69.609375 C 96.226562 69.609375 96.402344 69.679688 96.523438 69.816406 C 96.648438 69.953125 96.710938 70.140625 96.710938 70.382812 C 96.710938 70.628906 96.664062 70.859375 96.574219 71.078125 C 96.484375 71.292969 96.359375 71.457031 96.203125 71.570312 C 96.050781 71.683594 95.871094 71.742188 95.667969 71.742188 C 95.4375 71.742188 95.261719 71.671875 95.140625 71.535156 C 95.019531 71.394531 94.960938 71.199219 94.960938 70.941406 C 94.960938 70.703125 95.003906 70.476562 95.09375 70.265625 C 95.1875 70.054688 95.3125 69.894531 95.46875 69.78125 C 95.625 69.667969 95.800781 69.609375 96 69.609375 Z M 95.984375 69.769531 C 95.828125 69.769531 95.6875 69.820312 95.558594 69.921875 C 95.4375 70.019531 95.335938 70.164062 95.265625 70.347656 C 95.191406 70.53125 95.15625 70.726562 95.15625 70.929688 C 95.15625 71.359375 95.332031 71.578125 95.683594 71.578125 C 95.84375 71.578125 95.984375 71.527344 96.109375 71.429688 C 96.234375 71.335938 96.335938 71.191406 96.410156 71 C 96.480469 70.8125 96.519531 70.605469 96.519531 70.375 C 96.519531 70.183594 96.472656 70.035156 96.378906 69.929688 C 96.289062 69.824219 96.15625 69.769531 95.984375 69.769531 Z M 95.984375 69.769531 "/>
<path style=" stroke:none;fill-rule:nonzero;fill:rgb(97.254902%,86.27451%,74.901961%);fill-opacity:1;" d="M 97.910156 69.757812 C 98.0625 69.703125 98.171875 69.671875 98.234375 69.65625 C 98.296875 69.644531 98.355469 69.632812 98.410156 69.625 C 98.464844 69.621094 98.519531 69.617188 98.574219 69.617188 C 98.746094 69.617188 98.875 69.652344 98.964844 69.726562 C 99.054688 69.800781 99.097656 69.90625 99.097656 70.042969 C 99.097656 70.179688 99.050781 70.300781 98.953125 70.402344 C 98.855469 70.5 98.6875 70.589844 98.449219 70.675781 C 98.253906 70.746094 98.121094 70.804688 98.039062 70.855469 C 97.960938 70.90625 97.90625 70.960938 97.871094 71.019531 C 97.832031 71.082031 97.8125 71.152344 97.8125 71.234375 C 97.8125 71.347656 97.847656 71.429688 97.914062 71.492188 C 97.984375 71.546875 98.085938 71.578125 98.222656 71.578125 C 98.429688 71.578125 98.636719 71.53125 98.84375 71.441406 L 98.84375 71.609375 C 98.761719 71.640625 98.664062 71.671875 98.558594 71.703125 C 98.457031 71.726562 98.335938 71.742188 98.199219 71.742188 C 98.015625 71.742188 97.871094 71.699219 97.769531 71.609375 C 97.667969 71.523438 97.621094 71.402344 97.621094 71.246094 C 97.621094 71.144531 97.640625 71.054688 97.683594 70.976562 C 97.730469 70.894531 97.800781 70.824219 97.890625 70.761719 C 97.980469 70.695312 98.125 70.625 98.320312 70.550781 C 98.503906 70.476562 98.632812 70.417969 98.703125 70.375 C 98.773438 70.332031 98.824219 70.285156 98.855469 70.234375 C 98.886719 70.1875 98.90625 70.128906 98.90625 70.066406 C 98.90625 69.972656 98.871094 69.902344 98.808594 69.855469 C 98.75 69.808594 98.660156 69.785156 98.550781 69.785156 C 98.476562 69.785156 98.386719 69.796875 98.28125 69.820312 C 98.175781 69.84375 98.070312 69.878906 97.964844 69.921875 Z M 97.910156 69.757812 "/>
<path style=" stroke:none;fill-rule:nonzero;fill:rgb(97.254902%,86.27451%,74.901961%);fill-opacity:1;" d="M 101 69.609375 C 101.226562 69.609375 101.402344 69.679688 101.527344 69.816406 C 101.648438 69.953125 101.710938 70.140625 101.710938 70.382812 C 101.710938 70.628906 101.664062 70.859375 101.574219 71.078125 C 101.484375 71.292969 101.363281 71.457031 101.207031 71.570312 C 101.050781 71.683594 100.875 71.742188 100.671875 71.742188 C 100.4375 71.742188 100.261719 71.671875 100.140625 71.535156 C 100.019531 71.394531 99.960938 71.199219 99.960938 70.941406 C 99.960938 70.703125 100.003906 70.476562 100.097656 70.265625 C 100.1875 70.054688 100.3125 69.894531 100.472656 69.78125 C 100.628906 69.667969 100.804688 69.609375 101 69.609375 Z M 100.984375 69.769531 C 100.828125 69.769531 100.6875 69.820312 100.5625 69.921875 C 100.4375 70.019531 100.339844 70.164062 100.265625 70.347656 C 100.191406 70.53125 100.15625 70.726562 100.15625 70.929688 C 100.15625 71.359375 100.332031 71.578125 100.6875 71.578125 C 100.847656 71.578125 100.988281 71.527344 101.109375 71.429688 C 101.238281 71.335938 101.335938 71.191406 101.410156 71 C 101.484375 70.8125 101.519531 70.605469 101.519531 70.375 C 101.519531 70.183594 101.472656 70.035156 101.378906 69.929688 C 101.289062 69.824219 101.160156 69.769531 100.984375 69.769531 Z M 100.984375 69.769531 "/>
<path style=" stroke:none;fill-rule:nonzero;fill:rgb(97.254902%,86.27451%,74.901961%);fill-opacity:1;" d="M 105.292969 69.617188 C 105.585938 69.617188 105.761719 69.753906 105.824219 70.03125 L 105.832031 70.03125 L 105.941406 69.652344 L 106.09375 69.652344 L 105.664062 71.703125 L 105.507812 71.703125 L 105.59375 71.1875 L 105.582031 71.1875 C 105.476562 71.363281 105.359375 71.5 105.226562 71.597656 C 105.097656 71.695312 104.949219 71.742188 104.78125 71.742188 C 104.425781 71.742188 104.25 71.503906 104.25 71.03125 C 104.25 70.785156 104.292969 70.550781 104.386719 70.328125 C 104.484375 70.101562 104.609375 69.925781 104.769531 69.800781 C 104.929688 69.679688 105.101562 69.617188 105.292969 69.617188 Z M 104.824219 71.570312 C 104.9375 71.570312 105.046875 71.535156 105.15625 71.457031 C 105.269531 71.375 105.371094 71.269531 105.457031 71.140625 C 105.546875 71.007812 105.617188 70.863281 105.664062 70.707031 C 105.710938 70.546875 105.734375 70.410156 105.734375 70.300781 C 105.734375 70.203125 105.714844 70.113281 105.683594 70.035156 C 105.648438 69.957031 105.601562 69.894531 105.539062 69.851562 C 105.472656 69.804688 105.394531 69.78125 105.296875 69.78125 C 105.140625 69.78125 105 69.832031 104.875 69.9375 C 104.75 70.039062 104.644531 70.195312 104.5625 70.402344 C 104.484375 70.605469 104.441406 70.808594 104.441406 71.011719 C 104.441406 71.203125 104.472656 71.347656 104.539062 71.4375 C 104.601562 71.527344 104.695312 71.570312 104.824219 71.570312 Z M 104.824219 71.570312 "/>
<path style=" stroke:none;fill-rule:nonzero;fill:rgb(97.254902%,86.27451%,74.901961%);fill-opacity:1;" d="M 108.042969 69.617188 C 108.230469 69.617188 108.375 69.660156 108.480469 69.75 C 108.582031 69.839844 108.632812 69.964844 108.632812 70.121094 C 108.632812 70.269531 108.585938 70.394531 108.496094 70.484375 C 108.40625 70.578125 108.273438 70.644531 108.105469 70.679688 L 108.105469 70.6875 C 108.234375 70.710938 108.335938 70.761719 108.410156 70.835938 C 108.484375 70.910156 108.523438 71.003906 108.523438 71.117188 C 108.523438 71.234375 108.492188 71.34375 108.425781 71.4375 C 108.359375 71.53125 108.269531 71.605469 108.148438 71.660156 C 108.03125 71.714844 107.886719 71.742188 107.71875 71.742188 C 107.476562 71.742188 107.289062 71.671875 107.160156 71.527344 C 107.03125 71.378906 106.96875 71.171875 106.96875 70.90625 C 106.96875 70.671875 107.015625 70.457031 107.105469 70.257812 C 107.195312 70.054688 107.324219 69.898438 107.488281 69.785156 C 107.65625 69.671875 107.839844 69.617188 108.042969 69.617188 Z M 107.160156 70.78125 L 107.160156 70.921875 C 107.160156 71.136719 107.210938 71.296875 107.308594 71.40625 C 107.410156 71.515625 107.558594 71.570312 107.753906 71.570312 C 107.933594 71.570312 108.074219 71.535156 108.175781 71.457031 C 108.277344 71.375 108.328125 71.269531 108.328125 71.132812 C 108.328125 70.898438 108.160156 70.78125 107.820312 70.78125 Z M 108.03125 69.78125 C 107.820312 69.78125 107.640625 69.859375 107.484375 70.011719 C 107.328125 70.160156 107.226562 70.363281 107.175781 70.617188 L 107.628906 70.617188 C 107.894531 70.617188 108.097656 70.578125 108.234375 70.496094 C 108.371094 70.414062 108.441406 70.296875 108.441406 70.140625 C 108.441406 70.03125 108.40625 69.945312 108.335938 69.882812 C 108.265625 69.816406 108.164062 69.78125 108.03125 69.78125 Z M 108.03125 69.78125 "/>
<path style=" stroke:none;fill-rule:nonzero;fill:rgb(97.254902%,86.27451%,74.901961%);fill-opacity:1;" d="M 110.703125 71.703125 L 110.984375 70.429688 C 111.011719 70.269531 111.027344 70.167969 111.027344 70.121094 C 111.027344 69.894531 110.929688 69.78125 110.738281 69.78125 C 110.605469 69.78125 110.476562 69.824219 110.359375 69.910156 C 110.242188 69.996094 110.140625 70.113281 110.058594 70.265625 C 109.976562 70.417969 109.914062 70.597656 109.871094 70.804688 L 109.683594 71.703125 L 109.496094 71.703125 L 109.933594 69.652344 L 110.085938 69.652344 L 110.023438 70.046875 L 110.03125 70.046875 C 110.136719 69.902344 110.25 69.796875 110.378906 69.726562 C 110.503906 69.652344 110.636719 69.617188 110.777344 69.617188 C 110.910156 69.617188 111.011719 69.660156 111.082031 69.746094 C 111.15625 69.828125 111.195312 69.953125 111.199219 70.109375 L 111.210938 70.109375 C 111.308594 69.953125 111.421875 69.828125 111.554688 69.746094 C 111.683594 69.660156 111.824219 69.617188 111.972656 69.617188 C 112.117188 69.617188 112.234375 69.65625 112.3125 69.734375 C 112.394531 69.8125 112.4375 69.921875 112.4375 70.066406 C 112.4375 70.105469 112.433594 70.140625 112.433594 70.175781 C 112.429688 70.210938 112.417969 70.285156 112.398438 70.402344 L 112.113281 71.703125 L 111.921875 71.703125 L 112.203125 70.417969 C 112.234375 70.265625 112.246094 70.15625 112.246094 70.085938 C 112.246094 69.988281 112.21875 69.914062 112.167969 69.859375 C 112.113281 69.808594 112.039062 69.78125 111.941406 69.78125 C 111.746094 69.78125 111.570312 69.867188 111.417969 70.042969 C 111.269531 70.214844 111.164062 70.441406 111.101562 70.722656 L 110.898438 71.703125 Z M 110.703125 71.703125 "/>
<path style=" stroke:none;fill-rule:nonzero;fill:rgb(97.254902%,86.27451%,74.901961%);fill-opacity:1;" d="M 114.46875 69.609375 C 114.695312 69.609375 114.871094 69.679688 114.996094 69.816406 C 115.117188 69.953125 115.179688 70.140625 115.179688 70.382812 C 115.179688 70.628906 115.132812 70.859375 115.042969 71.078125 C 114.953125 71.292969 114.832031 71.457031 114.675781 71.570312 C 114.519531 71.683594 114.34375 71.742188 114.140625 71.742188 C 113.90625 71.742188 113.730469 71.671875 113.609375 71.535156 C 113.488281 71.394531 113.429688 71.199219 113.429688 70.941406 C 113.429688 70.703125 113.476562 70.476562 113.566406 70.265625 C 113.65625 70.054688 113.78125 69.894531 113.941406 69.78125 C 114.097656 69.667969 114.273438 69.609375 114.46875 69.609375 Z M 114.453125 69.769531 C 114.296875 69.769531 114.15625 69.820312 114.03125 69.921875 C 113.90625 70.019531 113.808594 70.164062 113.734375 70.347656 C 113.660156 70.53125 113.625 70.726562 113.625 70.929688 C 113.625 71.359375 113.800781 71.578125 114.15625 71.578125 C 114.316406 71.578125 114.457031 71.527344 114.578125 71.429688 C 114.707031 71.335938 114.804688 71.191406 114.878906 71 C 114.953125 70.8125 114.988281 70.605469 114.988281 70.375 C 114.988281 70.183594 114.941406 70.035156 114.851562 69.929688 C 114.757812 69.824219 114.628906 69.769531 114.453125 69.769531 Z M 114.453125 69.769531 "/>
</g>
</svg>
