<?xml version="1.0" standalone="no"?>
<!DOCTYPE svg PUBLIC "-//W3C//DTD SVG 20010904//EN"
 "http://www.w3.org/TR/2001/REC-SVG-20010904/DTD/svg10.dtd">
<svg version="1.0" xmlns="http://www.w3.org/2000/svg"
 width="250.000000pt" height="250.000000pt" viewBox="0 0 250.000000 250.000000"
 preserveAspectRatio="xMidYMid meet">
<metadata>
Created by potrace 1.14, written by Peter Selinger 2001-2017
</metadata>
<g transform="translate(0.000000,250.000000) scale(0.100000,-0.100000)"
fill="#000000" stroke="none">
<path d="M702 2373 c-35 -5 -42 -13 -45 -58 -2 -23 -11 -31 -52 -50 -47 -20
-54 -21 -118 -8 l-67 14 -50 -33 c-28 -18 -50 -38 -50 -44 0 -6 7 -31 15 -54
17 -47 16 -50 -37 -113 -19 -22 -37 -30 -98 -40 -68 -11 -76 -15 -97 -46 -13
-19 -28 -52 -35 -73 l-11 -38 52 -48 52 -47 -7 -73 -7 -72 -73 -53 -73 -52 4
-50 c10 -98 21 -141 38 -143 6 0 45 -8 85 -18 l73 -18 38 -77 39 -77 -39 -88
-39 -88 25 -35 c40 -56 116 -131 127 -125 6 4 47 17 92 29 l82 22 71 -46 c77
-50 77 -49 88 -161 4 -30 8 -60 10 -67 2 -6 34 -21 70 -32 120 -37 113 -39
183 36 l63 68 77 0 77 0 48 -67 47 -66 38 9 c107 28 120 37 137 94 8 30 18 68
21 85 4 16 11 30 16 30 6 0 30 13 54 30 l44 30 56 -28 56 -27 44 48 c47 52 50
66 33 146 l-10 49 -80 1 c-76 0 -82 -1 -126 -35 -153 -117 -330 -152 -558
-111 -91 17 -228 79 -317 145 -139 102 -221 210 -301 394 -52 118 -63 356 -22
456 8 17 12 32 9 32 -3 0 13 35 36 79 44 84 125 176 200 227 191 128 460 143
696 39 51 -23 164 -36 164 -20 0 3 -6 21 -14 40 -20 48 -88 82 -131 66 -42
-15 -111 12 -153 60 -24 28 -43 39 -82 46 -48 10 -52 9 -73 -17 -20 -24 -30
-27 -75 -25 -37 1 -63 9 -91 28 -39 26 -56 29 -129 20z"/>
<path d="M1160 1998 c-80 -25 -86 -30 -96 -76 -4 -20 -8 -39 -9 -42 -1 -3 -5
-19 -9 -37 -6 -25 -20 -40 -64 -67 l-56 -34 -58 29 c-32 16 -58 26 -58 22 0
-5 -19 -28 -41 -53 -41 -44 -41 -44 -34 -103 10 -90 7 -87 97 -87 70 0 82 3
106 25 39 36 177 102 252 121 121 31 277 22 409 -22 340 -114 580 -436 581
-780 1 -409 -330 -684 -757 -631 -58 7 -197 52 -228 73 -17 12 -145 21 -145
10 0 -1 5 -17 11 -35 7 -21 26 -40 56 -58 40 -23 49 -25 78 -14 44 16 108 -9
152 -59 25 -29 44 -39 83 -47 49 -10 52 -9 71 17 18 24 27 27 73 26 40 -1 63
-8 96 -30 38 -25 48 -27 99 -21 31 3 59 10 63 13 4 4 8 22 10 41 2 30 8 36 54
57 49 22 52 23 115 8 70 -16 86 -12 150 41 l25 21 -17 39 c-23 52 -23 60 0 87
11 13 28 33 38 46 13 17 36 25 88 34 39 6 76 16 83 21 15 11 62 111 62 130 0
7 -25 33 -54 60 -51 44 -54 49 -46 77 11 37 10 33 10 74 0 32 7 39 74 88 l75
53 -5 45 c-16 152 -10 143 -110 165 l-86 19 -37 80 -37 80 39 88 39 89 -48 57
c-60 71 -83 92 -101 92 -16 0 -149 -36 -162 -45 -6 -3 -43 16 -83 42 -40 26
-74 48 -76 49 -6 4 -19 98 -21 151 -1 22 -8 36 -23 44 -21 11 -35 15 -133 40
l-40 10 -65 -70 c-47 -49 -72 -69 -85 -66 -11 2 -47 4 -80 4 l-60 1 -43 65
c-23 36 -45 65 -50 64 -4 0 -36 -9 -72 -21z"/>
</g>
</svg>
